<?xml version="1.0" standalone="no"?>
<!DOCTYPE svg PUBLIC "-//W3C//DTD SVG 20010904//EN"
 "http://www.w3.org/TR/2001/REC-SVG-20010904/DTD/svg10.dtd">
<svg version="1.0" xmlns="http://www.w3.org/2000/svg"
 width="850.000000pt" height="850.000000pt" viewBox="0 0 850.000000 850.000000"
 preserveAspectRatio="xMidYMid meet">
<metadata>
Created by potrace 1.11, written by Peter Selinger 2001-2013
</metadata>
<g transform="translate(0.000000,850.000000) scale(0.100000,-0.100000)"
fill="#000000" stroke="none">
<path d="M3835 8448 c-200 -137 -370 -317 -480 -505 -58 -101 -83 -180 -79
-250 7 -144 111 -235 398 -348 72 -29 154 -64 182 -78 134 -68 169 -195 104
-388 -29 -88 -138 -311 -163 -335 -7 -6 -48 -22 -93 -37 -125 -40 -421 -177
-629 -292 -227 -125 -366 -230 -498 -374 -124 -135 -174 -226 -215 -391 l-9
-35 -13 45 c-27 90 -7 209 52 318 87 162 318 387 532 519 76 47 79 51 20 27
-132 -52 -338 -170 -446 -254 -410 -319 -476 -713 -170 -1017 46 -46 88 -83
92 -83 5 0 2 -17 -7 -37 -29 -69 -27 -95 8 -138 42 -53 120 -170 144 -218 11
-21 39 -56 61 -77 27 -25 43 -49 46 -69 6 -38 0 -37 -78 15 -29 19 -66 55 -81
79 -24 37 -32 43 -53 38 -14 -3 -29 -9 -33 -13 -8 -7 107 -101 216 -177 36
-25 47 -39 48 -60 0 -16 2 -35 4 -43 1 -8 6 -35 9 -60 20 -134 90 -478 121
-592 3 -10 7 -26 9 -35 13 -52 48 -165 66 -217 24 -71 19 -68 -27 16 -82 150
-196 399 -259 563 -20 50 -40 101 -46 115 -10 26 -139 380 -200 550 -18 52
-69 202 -113 332 -44 130 -81 235 -83 233 -8 -8 149 -662 228 -952 148 -546
290 -948 398 -1128 111 -186 297 -367 466 -455 44 -23 133 -145 210 -290 25
-47 46 -79 46 -72 0 41 -83 236 -118 275 -21 23 -13 22 92 -17 50 -19 105 -37
121 -41 30 -6 30 -6 -5 13 -326 175 -518 357 -610 578 l-20 49 22 -27 c13 -14
43 -58 67 -97 97 -155 260 -290 486 -401 203 -100 410 -172 585 -204 67 -12
70 -14 31 -15 -24 -1 -42 -3 -40 -5 15 -15 396 -23 494 -11 181 22 200 25 299
50 241 61 493 231 662 447 46 60 41 63 -16 9 -32 -30 -149 -117 -220 -163 -50
-33 -210 -119 -210 -113 0 1 24 20 53 42 124 95 244 237 321 383 24 46 125
290 131 319 9 36 84 255 85 244 1 -42 -90 -439 -115 -506 -21 -54 -18 -63 10
-29 33 39 97 161 134 253 54 138 103 346 126 534 3 28 8 64 10 80 2 17 7 64
11 105 3 41 8 91 10 110 2 19 6 96 9 170 8 194 12 221 36 253 l21 29 -21 -12
-21 -11 20 33 c38 61 90 250 105 379 14 124 12 259 -4 259 -3 0 -17 -16 -30
-36 -40 -59 -184 -198 -267 -260 -88 -65 -226 -140 -329 -179 -63 -24 -260
-78 -324 -90 -14 -3 -37 -7 -51 -10 -25 -5 -110 -21 -162 -30 -16 -3 -40 -7
-55 -10 -16 -3 -48 -7 -73 -11 -25 -3 -52 -7 -60 -9 -8 -2 -42 -7 -74 -11 -33
-3 -67 -8 -75 -9 -9 -2 -45 -6 -81 -10 -36 -4 -76 -8 -90 -11 -14 -2 -61 -6
-105 -10 -44 -3 -91 -7 -105 -10 -60 -9 -257 -19 -400 -19 -155 0 -206 4 -310
25 -30 6 -66 13 -80 15 -49 9 -187 53 -263 85 -79 33 -112 56 -55 39 18 -6 44
-12 58 -15 14 -3 32 -7 40 -9 8 -2 31 -7 50 -10 19 -3 60 -10 90 -15 233 -39
439 -53 779 -51 138 1 165 7 70 17 -30 2 -72 7 -94 9 -22 2 -69 7 -105 10 -36
4 -132 15 -215 26 -204 27 -205 27 -250 35 -22 4 -47 8 -55 9 -15 2 -113 21
-160 30 -14 3 -41 8 -60 11 -19 3 -68 15 -110 26 -41 10 -85 21 -97 24 -55 11
-245 80 -308 112 -69 34 -164 100 -165 114 0 4 24 -2 53 -13 138 -56 243 -85
327 -94 75 -7 108 -16 230 -63 224 -85 355 -109 695 -127 168 -8 379 -15 598
-20 110 -2 201 -5 203 -7 2 -2 -35 -16 -81 -32 -47 -15 -85 -29 -85 -31 0 -2
26 -2 58 0 31 3 91 7 132 10 333 26 741 161 985 325 229 154 362 394 369 664
1 36 7 71 14 78 6 6 12 9 12 5 0 -13 54 20 91 55 19 18 53 56 74 83 70 91 149
157 244 204 67 34 125 53 76 25 -94 -53 -244 -186 -393 -349 -69 -75 -73 -82
-67 -115 4 -19 7 -41 7 -49 1 -8 17 5 37 29 273 327 529 455 665 331 73 -67
78 -186 15 -375 -67 -203 -173 -370 -289 -457 -43 -32 -57 -38 -83 -33 -46 9
-105 6 -128 -6 -16 -9 -30 -5 -74 20 -30 17 -55 36 -55 41 0 5 -5 9 -11 9 -20
0 0 -93 24 -113 13 -11 17 -21 10 -25 -32 -21 -47 -107 -60 -339 -4 -87 -3
-107 12 -129 9 -14 15 -35 12 -45 -3 -10 -2 -19 3 -19 4 0 8 -10 7 -22 0 -13
4 -95 8 -183 21 -421 4 -644 -66 -856 -70 -216 -189 -385 -394 -559 -65 -55
-334 -260 -410 -311 -275 -187 -550 -319 -692 -332 -84 -8 -279 -58 -453 -116
l-145 -49 -55 23 c-30 13 -84 37 -120 53 -146 67 -197 89 -222 95 -61 16 -28
-13 105 -92 78 -46 154 -91 170 -101 l27 -16 -97 -50 c-54 -27 -100 -48 -103
-47 -139 50 -178 63 -192 63 -15 0 -16 3 -4 33 47 115 -82 343 -336 594 -208
205 -414 352 -553 395 -167 52 -360 90 -452 90 -125 0 -211 -70 -233 -191 l-7
-36 -8 43 c-13 71 -26 59 -21 -20 12 -206 78 -384 197 -534 46 -58 142 -149
177 -168 10 -5 19 -12 22 -16 25 -31 268 -165 375 -206 97 -37 48 -27 -84 17
-278 93 -493 234 -624 408 -86 115 -180 329 -206 471 -16 91 -7 256 18 321 43
112 124 191 231 225 75 24 213 22 305 -3 39 -11 77 -22 85 -24 8 -2 14 1 13 6
0 6 -22 102 -47 215 -64 289 -133 627 -151 740 -3 19 -7 46 -10 60 -2 14 -7
43 -10 65 -3 22 -9 69 -14 105 -5 36 -7 80 -6 98 2 17 -1 35 -6 38 -13 7 -95
-41 -216 -128 -347 -249 -596 -542 -793 -933 -243 -480 -358 -853 -358 -1160
0 -287 93 -504 301 -702 212 -201 575 -360 1007 -440 14 -2 50 -12 80 -22 31
-10 70 -22 88 -25 17 -4 34 -11 37 -16 3 -4 -32 -22 -78 -40 -45 -18 -101 -42
-125 -52 -24 -10 -145 -60 -270 -109 -270 -108 -374 -156 -465 -218 -37 -25
-85 -56 -105 -68 -20 -13 -35 -23 -32 -24 3 -1 58 -2 122 -3 65 -1 120 -5 123
-8 5 -4 -34 -25 -150 -79 -50 -23 -125 -90 -125 -110 0 -31 187 16 262 66 82
54 39 5 -57 -65 -67 -49 -130 -109 -122 -116 3 -3 85 30 184 74 322 144 514
213 713 257 63 15 151 35 195 47 44 11 91 22 105 24 77 14 430 124 495 155 11
6 4 -4 -15 -21 -53 -48 -237 -168 -405 -265 -255 -146 -446 -275 -410 -275 18
0 126 34 170 55 159 72 280 111 370 118 100 8 95 -4 -32 -78 -65 -38 -147 -91
-183 -118 -84 -63 -153 -138 -139 -152 16 -16 99 -9 163 14 57 20 395 118 433
125 28 6 243 63 383 102 117 33 186 54 610 183 90 27 166 49 167 47 1 -1 -34
-17 -80 -35 -275 -112 -629 -312 -919 -520 -151 -109 -152 -110 -146 -117 24
-23 185 -32 273 -15 111 22 130 27 320 82 158 45 235 64 310 74 49 6 94 15
215 41 248 54 400 96 775 216 335 107 390 123 664 199 293 81 428 123 561 173
51 19 95 34 97 32 2 -1 -25 -15 -60 -31 -34 -16 -122 -57 -195 -92 -73 -35
-134 -63 -136 -63 -2 0 -21 -8 -42 -17 -22 -9 -43 -17 -49 -19 -5 -1 -65 -22
-133 -48 -184 -69 -288 -131 -325 -195 l-18 -31 48 -1 c136 -3 258 15 411 61
99 29 518 187 662 250 335 144 612 283 868 435 95 56 178 109 352 226 306 205
321 216 306 222 -16 6 -226 0 -265 -7 -14 -3 -44 -8 -66 -11 -71 -9 -254 -54
-308 -74 -49 -19 -44 -12 14 22 95 55 151 101 187 155 12 18 13 25 3 31 -15
10 -31 7 -214 -35 -138 -33 -258 -46 -273 -31 -4 3 12 45 35 93 l41 87 -67 -6
c-38 -3 -79 -9 -93 -12 -14 -4 11 16 55 45 98 64 230 167 270 210 23 26 9 19
-65 -31 -104 -71 -121 -81 -294 -181 -65 -38 -121 -66 -124 -63 -3 3 -3 6 -1
8 36 26 208 179 250 223 31 33 82 79 114 104 243 189 472 571 580 965 37 135
53 209 59 275 3 25 9 70 13 100 4 30 8 109 7 175 0 96 -5 135 -23 195 -29 93
-85 210 -153 320 -32 51 -54 99 -56 120 -6 61 -22 108 -48 139 -20 24 -32 29
-62 28 -35 -2 -42 3 -126 98 -122 136 -264 273 -366 352 -47 37 -89 70 -94 74
-5 4 11 38 36 76 74 113 150 253 211 393 29 66 76 189 82 216 3 10 14 55 25
99 24 93 25 204 2 280 -56 193 -237 384 -467 495 -189 91 -303 96 -469 21 -65
-29 -186 -101 -212 -125 -7 -6 -42 -33 -77 -61 -36 -27 -64 -51 -62 -53 2 -2
25 8 51 23 49 27 96 47 214 91 69 25 69 24 -16 -41 -21 -16 -64 -54 -94 -84
-57 -55 -56 -55 65 21 33 20 105 63 159 95 91 52 105 57 166 60 115 4 262 -36
368 -99 125 -75 223 -211 268 -373 23 -83 27 -253 8 -335 -15 -63 -93 -255
-100 -247 -3 2 3 21 12 43 68 160 66 344 -6 541 -86 233 -256 363 -475 363
-91 0 -189 -22 -310 -69 -101 -39 -162 -81 -207 -143 l-37 -49 -15 29 c-23 44
-123 144 -196 194 -178 124 -417 222 -755 308 -82 21 -163 41 -180 43 -132 24
-210 39 -213 42 -2 2 16 27 40 57 95 117 140 219 144 333 2 64 -1 88 -18 122
-45 95 -151 182 -312 257 -73 34 -337 127 -396 140 -14 3 -45 10 -70 17 -25 6
-52 12 -61 14 -70 14 -194 53 -239 74 -183 85 -210 255 -74 462 53 80 198 245
270 306 27 23 47 42 44 42 -3 0 -32 -18 -65 -41z m675 -1212 c47 -20 87 -59
106 -104 23 -54 21 -172 -5 -246 -34 -96 -105 -215 -126 -210 -6 1 -27 5 -47
9 l-38 6 23 37 c25 40 64 129 79 177 17 59 11 152 -15 208 -23 51 -87 127
-107 127 -5 0 -10 4 -10 10 0 13 99 4 140 -14z m-41 -592 c3 -2 -6 -15 -19
-29 -18 -19 -34 -25 -67 -25 l-43 0 22 35 c22 32 26 34 63 28 22 -3 42 -7 44
-9z m186 -33 c28 -6 61 -13 75 -16 14 -3 34 -7 45 -9 48 -10 205 -60 294 -92
198 -73 508 -239 763 -408 l87 -57 -6 -64 c-8 -84 23 -193 68 -239 15 -16 11
-40 -22 -143 -34 -107 -93 -229 -137 -281 l-28 -33 -2 48 c-9 225 -152 383
-433 477 -84 28 -255 72 -314 82 -21 3 -47 7 -58 10 -12 2 -37 6 -57 9 -20 3
-45 7 -57 9 -12 3 -53 8 -90 11 -37 4 -70 9 -73 10 -17 10 -250 20 -460 20
-261 0 -370 -6 -539 -30 l-45 -7 29 39 c45 60 92 100 127 107 125 25 316 26
478 2 14 -2 50 -7 80 -10 30 -4 62 -8 70 -11 8 -2 38 -6 65 -10 28 -3 64 -8
80 -11 17 -3 44 -7 60 -9 54 -7 110 -15 135 -20 14 -3 43 -7 65 -10 22 -2 49
-6 60 -9 11 -2 43 -7 70 -10 100 -14 115 -17 177 -35 167 -48 465 -186 600
-279 96 -65 116 -75 143 -68 42 11 47 94 10 170 -70 142 -335 409 -556 560
-167 113 -381 203 -574 241 -80 15 -281 42 -287 38 -19 -11 -6 18 15 32 23 17
49 16 142 -4z m2217 -593 c15 -24 30 -59 34 -78 5 -30 1 -26 -24 25 -16 33
-47 78 -68 99 l-39 40 35 -21 c19 -12 47 -41 62 -65z m-3457 -117 c-21 -39
-32 -50 -58 -55 -29 -6 -91 -24 -297 -88 -215 -67 -422 -208 -542 -370 -49
-66 -52 -68 -61 -46 -11 29 -18 148 -9 146 29 -6 122 40 387 190 83 47 200
109 260 138 111 53 309 133 333 134 8 0 3 -17 -13 -49z m2102 -287 c86 -50
175 -184 218 -332 l18 -62 -39 -34 c-43 -38 -48 -35 -59 34 -19 122 -118 304
-210 389 -25 23 -45 43 -45 45 0 9 78 -17 117 -40z m-954 -3641 c42 -9 74 -20
70 -24 -25 -22 -323 -71 -323 -53 0 5 20 18 43 28 23 11 58 30 77 42 43 28 38
28 133 7z m-963 -70 c100 -40 100 -35 0 -90 -50 -27 -58 -29 -86 -17 -17 7
-73 15 -125 18 -97 6 -193 14 -244 21 -16 2 -40 4 -52 4 -39 1 -25 16 15 17
109 1 283 34 342 64 48 25 49 24 150 -17z m1293 -10 c-7 -2 -21 -2 -30 0 -10
3 -4 5 12 5 17 0 24 -2 18 -5z m297 -73 c62 -16 114 -31 117 -33 3 -4 -22 -11
-87 -23 -8 -2 -60 -13 -115 -25 -55 -12 -126 -27 -157 -34 -32 -7 -58 -10 -58
-7 0 14 163 151 181 152 4 0 57 -13 119 -30z"/>
<path d="M3729 6706 c-2 -2 -22 -6 -44 -9 -22 -4 -60 -12 -85 -20 -53 -16
-172 -68 -167 -73 3 -4 167 36 377 90 l55 14 -66 1 c-36 1 -68 -1 -70 -3z"/>
<path d="M6110 5150 c-1 -19 -3 -44 -5 -55 -2 -11 -7 -47 -10 -80 -8 -81 -15
-137 -20 -155 -2 -8 -6 -46 -10 -85 -3 -38 -8 -77 -10 -85 -2 -8 -6 -40 -9
-70 -3 -30 -12 -98 -20 -150 -8 -52 -17 -115 -20 -140 -3 -25 -7 -54 -10 -65
-3 -19 -14 -92 -21 -145 -6 -38 -50 -299 -60 -350 -3 -14 -9 -50 -15 -80 -18
-94 -52 -242 -72 -315 -11 -38 -21 -80 -24 -93 -3 -13 -13 -47 -24 -75 -11
-28 -18 -52 -17 -53 5 -5 84 118 116 179 37 71 103 257 130 367 17 68 32 143
56 290 2 14 7 52 10 85 3 33 7 74 9 90 4 28 11 110 21 245 17 224 26 690 14
746 l-7 29 -2 -35z"/>
<path d="M6930 4997 c0 -2 26 -21 58 -42 91 -62 219 -171 324 -277 261 -264
440 -594 484 -895 3 -26 8 -57 10 -68 6 -26 4 -257 -1 -315 -6 -60 -14 -129
-20 -160 -2 -14 -7 -41 -9 -60 -37 -244 -144 -536 -275 -754 -46 -76 -144
-210 -178 -244 -7 -7 -13 -16 -13 -19 0 -8 151 128 218 197 161 165 256 339
333 605 28 97 35 129 64 293 32 184 44 388 30 522 -28 277 -175 559 -412 792
-113 111 -189 173 -336 269 -106 69 -277 166 -277 156z"/>
<path d="M2000 4819 c-396 -215 -730 -515 -953 -859 -46 -71 -167 -298 -167
-313 0 -3 -7 -21 -15 -41 -8 -20 -15 -38 -15 -41 0 -3 -6 -18 -13 -33 -14 -27
-62 -191 -72 -247 -44 -237 -38 -518 14 -645 8 -21 10 -12 11 50 1 41 3 86 5
100 1 14 5 58 9 98 4 40 9 78 11 85 2 6 6 29 9 49 5 31 14 76 30 143 43 178
148 421 244 565 79 117 414 521 578 696 16 17 51 55 78 85 39 43 292 312 322
342 14 13 0 7 -76 -34z"/>
<path d="M850 3928 c-12 -22 -12 -22 6 -6 10 10 15 20 12 24 -4 3 -12 -5 -18
-18z"/>
<path d="M782 3798 c-109 -224 -164 -389 -206 -623 -9 -47 -19 -194 -19 -265
0 -126 25 -323 43 -343 4 -5 4 10 0 33 -8 45 -5 379 5 470 5 51 30 210 39 255
36 171 80 310 147 459 27 61 47 112 45 114 -2 2 -27 -43 -54 -100z"/>
<path d="M2298 3165 c-2 -2 -25 -5 -53 -8 -65 -7 -177 -36 -190 -49 -7 -7 -4
-9 10 -5 73 20 304 24 427 8 42 -6 120 -19 174 -31 115 -24 117 -24 82 -6 -94
49 -246 87 -360 91 -48 1 -89 1 -90 0z"/>
<path d="M5075 2442 c-153 -77 -209 -98 -360 -136 -60 -15 -81 -19 -165 -32
-49 -7 -311 -7 -375 0 -22 2 -74 7 -115 11 -41 4 -78 9 -81 11 -3 1 -28 6 -55
9 -65 9 -230 62 -274 88 -79 47 -84 49 -45 14 91 -82 309 -163 495 -183 330
-35 753 34 961 159 64 38 138 102 128 110 -2 2 -53 -21 -114 -51z"/>
</g>
</svg>
